:SAMPLES-PER-SECOND 30
:FULLY-SPECIFIED
:DEGREES
251
root  17.5066 39.9255 28.3978 -5.53114 -83.7075 2.79112
RightUpLeg  -0.729932 -7.77944 2.63884
RightLeg  15.9919 -4.62248 3.3633
RightFoot  -12.3736 -0.164365 -9.05611
RightToes  -4.65663e-010 0 -3.6325e-017
Spine  3.79873 0.038149 10.6569
Spine1  6.8611 1.25029 -1.87172
HEad  -8.18932 -4.47366 2.21567
LeftShoulder1  8.98817 -12.4964 -49.0403
LeftArm  -2.72101 18.8554 -28.5244
LeftForeArm  27.3223 -14.8045 -5.49935
LeftHand  -0.244104 0.0205437 5.32207
RightShoulder  5.89678 9.26246 40.0495
RightArm  7.79317 1.02831 36.3989
RightForeArm  3.37981 27.5178 5.7557
RightHand  -0.875599 1.24103 -15.4176
LeftUpLeg  -19.9965 5.47198 4.77726
LeftLeg  49.6614 3.72362 5.12652
LeftFoot  1.04123 0.482165 -4.52083
LeftToes  -7.27628e-011 -1.6005e-012 -1.37987e-011
252
root  16.1676 39.9465 28.7544 -14.0276 -85.2259 11.4701
RightUpLeg  2.11035 -7.83584 1.15609
RightLeg  14.7223 -2.59508 3.80487
RightFoot  -13.7092 -0.262939 -8.22585
RightToes  -4.65663e-010 0 -3.6325e-017
Spine  3.34821 0.52624 10.9618
Spine1  7.43858 2.02019 -3.62238
HEad  -8.90236 -4.50022 2.03669
LeftShoulder1  9.06481 -12.5366 -49.3349
LeftArm  -5.76638 20.822 -28.8943
LeftForeArm  29.7657 -10.9027 -6.14907
LeftHand  -0.244104 0.0205437 5.32207
RightShoulder  5.88416 9.28331 39.8846
RightArm  8.51846 4.74435 37.0586
RightForeArm  4.7338 30.5635 6.42083
RightHand  -0.842564 1.0827 -15.1967
LeftUpLeg  -21.5384 6.05266 4.43686
LeftLeg  40.2897 3.38229 3.45928
LeftFoot  -0.0393631 0.545177 -5.49569
LeftToes  -7.27628e-011 -1.6005e-012 -1.37987e-011
253
root  14.808 39.8977 29.1007 -23.2405 -86.4104 20.942
RightUpLeg  4.73352 -7.98247 -0.0208384
RightLeg  13.6195 -0.861811 4.049
RightFoot  -14.9201 -0.350216 -7.94744
RightToes  -4.65663e-010 0 -3.6325e-017
Spine  2.77085 0.841462 11.2169
Spine1  8.08594 2.52049 -5.0117
HEad  -9.63286 -4.27682 1.94737
LeftShoulder1  9.13235 -12.5636 -49.618
LeftArm  -6.87406 22.9359 -29.2969
LeftForeArm  30.931 -8.27063 -6.21451
LeftHand  -0.244104 0.0205437 5.32207
RightShoulder  5.85888 9.29762 39.6482
RightArm  9.03005 8.096 37.7523
RightForeArm  5.12175 33.0041 7.02814
RightHand  -0.805611 0.759742 -15.2759
LeftUpLeg  -22.0557 7.49339 4.03284
LeftLeg  28.7995 1.42049 1.34654
LeftFoot  0.191191 0.558677 -5.54658
LeftToes  -7.27628e-011 -1.6005e-012 -1.37987e-011
254
root  13.434 39.8487 29.436 -38.5956 -87.3978 36.4007
RightUpLeg  7.67232 -8.22517 -1.2502
RightLeg  12.1667 0.952158 4.26027
RightFoot  -15.8113 -0.419227 -7.99105
RightToes  -4.65663e-010 0 -3.6325e-017
Spine  2.49384 1.13374 11.1618
Spine1  8.54488 2.98015 -6.16708
HEad  -10.415 -4.03179 1.94904
LeftShoulder1  9.21714 -12.6231 -49.8932
LeftArm  -6.97981 25.3139 -29.76
LeftForeArm  31.4011 -6.82214 -6.10584
LeftHand  -0.244104 0.0205437 5.32207
RightShoulder  5.83248 9.29396 39.4647
RightArm  9.42075 10.666 38.1528
RightForeArm  5.06953 34.9516 7.56163
RightHand  -0.764017 0.400594 -15.3618
LeftUpLeg  -21.3604 9.16705 3.7075
LeftLeg  16.0189 -0.803071 -0.538548
LeftFoot  1.02505 0.615004 -5.72087
LeftToes  -7.27628e-011 -1.6005e-012 -1.37987e-011
255
root  12.0284 39.7176 29.7942 -65.9203 -88.0186 63.5076
RightUpLeg  10.7623 -8.74657 -2.8514
RightLeg  11.3049 3.30423 4.42646
RightFoot  -17.0038 -0.458777 -6.98986
RightToes  -4.65663e-010 0 -3.6325e-017
Spine  2.69489 1.34579 10.8437
Spine1  8.7991 3.4024 -7.10025
HEad  -11.4818 -3.72744 2.30523
LeftShoulder1  9.24871 -12.6486 -49.9846
LeftArm  -7.13248 27.7905 -30.3954
LeftForeArm  31.7827 -6.28772 -5.9931
LeftHand  -0.244104 0.0205437 5.32207
RightShoulder  5.84543 9.31679 39.4834
RightArm  9.89439 12.4372 38.1256
RightForeArm  5.34662 36.2847 7.92438
RightHand  -0.746027 0.295542 -15.2735
LeftUpLeg  -19.7222 7.39314 5.07284
LeftLeg  4.43462 3.10852 -2.74853
LeftFoot  1.84784 0.786982 -6.90586
LeftToes  -7.27628e-011 -1.6005e-012 -1.37987e-011
256
root  10.5409 39.462 30.21 -91.9399 -88.1046 89.1101
RightUpLeg  13.4971 -9.55456 -4.59645
RightLeg  11.9244 5.77204 4.3924
RightFoot  -18.4938 -0.434751 -4.94796
RightToes  -4.65663e-010 0 -3.6325e-017
Spine  2.94711 1.33545 10.7344
Spine1  9.09594 3.64302 -7.93943
HEad  -11.9202 -3.48175 2.3744
LeftShoulder1  9.19345 -12.6095 -49.8074
LeftArm  -7.3839 29.8965 -31.1174
LeftForeArm  31.9951 -6.27305 -5.92621
LeftHand  -0.244104 0.0205437 5.32207
RightShoulder  5.88264 9.35718 39.6226
RightArm  10.3791 13.4355 37.9565
RightForeArm  5.78843 36.7412 8.03158
RightHand  -0.747801 0.351481 -15.1651
LeftUpLeg  -18.6305 5.28305 6.1252
LeftLeg  -2.09093 9.86503 -5.02669
LeftFoot  1.72382 0.881495 -7.77475
LeftToes  -7.27628e-011 -1.6005e-012 -1.37987e-011
257
root  8.95654 39.1912 30.6697 -104.494 -88.0168 101.338
RightUpLeg  15.7675 -10.3186 -6.16085
RightLeg  13.4337 7.71325 3.99997
RightFoot  -19.358 -0.346682 -3.06992
RightToes  -4.65663e-010 0 -3.6325e-017
Spine  2.72547 1.29713 10.7923
Spine1  9.65226 3.83155 -8.6295
HEad  -12.2935 -3.53069 2.60679
LeftShoulder1  9.11819 -12.573 -49.5128
LeftArm  -7.58036 31.3993 -31.6674
LeftForeArm  31.98 -6.36048 -5.89046
LeftHand  -0.244104 0.0205437 5.32207
RightShoulder  5.89178 9.35456 39.699
RightArm  10.5705 13.2889 37.7215
RightForeArm  5.76544 36.4231 7.93979
RightHand  -0.742495 0.297793 -15.1973
LeftUpLeg  -18.6689 5.50163 5.35905
LeftLeg  -2.12276 13.5458 -5.67719
LeftFoot  1.79005 0.811312 -7.14496
LeftToes  -7.27628e-011 -1.6005e-012 -1.37987e-011
258
root  7.23276 38.9445 31.1332 -111.997 -87.5519 108.662
RightUpLeg  17.7235 -10.3306 -7.81851
RightLeg  15.393 9.04971 3.4196
RightFoot  -19.5799 -0.188722 -0.824433
RightToes  -4.65663e-010 0 -3.6325e-017
Spine  1.83193 1.60139 9.90146
Spine1  10.254 4.10395 -8.45663
HEad  -12.0951 -3.98011 2.84412
LeftShoulder1  9.04228 -12.522 -49.2566
LeftArm  -7.76594 32.5611 -31.9396
LeftForeArm  31.8532 -6.33482 -5.82503
LeftHand  -0.244104 0.0205437 5.32207
RightShoulder  5.91294 9.34345 39.8928
RightArm  10.8052 11.707 36.9952
RightForeArm  5.01993 35.3321 7.6701
RightHand  -0.768269 0.395051 -15.458
LeftUpLeg  -19.2388 5.49583 3.84996
LeftLeg  2.12937 14.4126 -4.59237
LeftFoot  4.29251 0.640763 -4.91874
LeftToes  -7.27628e-011 -1.6005e-012 -1.37987e-011
259
root  5.3832 38.7312 31.5511 -112.448 -86.2862 108.973
RightUpLeg  19.1975 -8.53366 -9.75872
RightLeg  18.04 9.14708 3.09222
RightFoot  -18.9156 0.102728 3.5639
RightToes  -4.65663e-010 0 -3.6325e-017
Spine  0.394235 2.13875 6.86408
Spine1  10.4688 4.14832 -6.90424
HEad  -10.3259 -4.59312 3.10978
LeftShoulder1  8.90053 -12.3298 -49.0718
LeftArm  -7.85631 33.5623 -31.8143
LeftForeArm  31.673 -6.19488 -5.7582
LeftHand  -0.244104 0.0205437 5.32207
RightShoulder  6.04504 9.40587 40.6488
RightArm  12.2834 9.20626 35.7021
RightForeArm  3.50417 32.4429 6.92765
RightHand  -0.891216 1.14271 -15.912
LeftUpLeg  -20.2144 7.93539 0.545184
LeftLeg  8.40547 10.0887 -2.35036
LeftFoot  7.91816 0.293539 -2.00498
LeftToes  -7.27628e-011 -1.6005e-012 -1.37987e-011
260
root  3.52671 38.6536 31.9085 -106.054 -84.5757 102.499
RightUpLeg  19.0192 -5.08562 -11.3413
RightLeg  22.8177 6.96394 2.96756
RightFoot  -15.1938 0.181121 9.04783
RightToes  -4.65663e-010 0 -3.6325e-017
Spine  -1.16021 2.3299 2.50523
Spine1  10.1427 3.72029 -4.81265
HEad  -6.92334 -5.18729 3.67324
LeftShoulder1  8.71523 -12.0305 -48.974
LeftArm  -7.53358 33.9609 -30.9226
LeftForeArm  31.4614 -6.02043 -5.78409
LeftHand  -0.244104 0.0205437 5.32207
RightShoulder  6.25889 9.49633 41.8874
RightArm  15.0464 6.80526 34.8332
RightForeArm  1.758 26.1891 5.82743
RightHand  -1.05761 2.26507 -16.1653
LeftUpLeg  -20.9249 11.982 -3.89028
LeftLeg  14.115 3.96757 -0.27409
LeftFoot  8.74273 -0.0684011 0.115267
LeftToes  -7.27628e-011 -1.6005e-012 -1.37987e-011
261
root  1.78861 38.7547 32.2384 -102.742 -83.1439 99.114
RightUpLeg  15.8702 -1.99766 -12.1646
RightLeg  31.3983 3.83682 2.2528
RightFoot  -6.48022 -0.517855 11.7044
RightToes  -4.65663e-010 0 -3.6325e-017
Spine  -2.15892 2.12008 -0.605203
Spine1  9.43915 3.27283 -3.85489
HEad  -3.22909 -5.80327 4.32715
LeftShoulder1  8.62992 -11.8771 -48.9769
LeftArm  -6.75842 33.0692 -29.1146
LeftForeArm  31.3322 -5.94385 -5.90575
LeftHand  -0.244104 0.0205437 5.32207
RightShoulder  6.4267 9.55523 42.8802
RightArm  11.8609 5.08934 35.2427
RightForeArm  6.03513 15.9184 6.36427
RightHand  -1.08976 2.70301 -15.7648
LeftUpLeg  -20.2662 13.8658 -6.6822
LeftLeg  17.9885 1.85771 0.983245
LeftFoot  5.53194 -0.15589 0.810988
LeftToes  -7.27628e-011 -1.6005e-012 -1.37987e-011
262
root  0.275652 38.9294 32.5294 -107.45 -82.0084 103.604
RightUpLeg  10.0437 1.10068 -12.2432
RightLeg  42.3235 1.08966 0.781013
RightFoot  4.37125 -1.33602 10.008
RightToes  -4.65663e-010 0 -3.6325e-017
Spine  -2.12693 2.04264 -1.79635
Spine1  8.84332 3.31762 -4.61451
HEad  -0.808508 -6.2961 4.44773
LeftShoulder1  8.69812 -11.9935 -48.9941
LeftArm  -5.97722 30.6894 -26.8989
LeftForeArm  31.2889 -6.12379 -6.04252
LeftHand  -0.244104 0.0205437 5.32207
RightShoulder  6.52313 9.66853 43.1658
RightArm  -2.89114 3.74248 36.4138
RightForeArm  20.1387 4.11737 7.67819
RightHand  -0.903064 1.73696 -14.8173
LeftUpLeg  -18.1002 14.5578 -7.54771
LeftLeg  19.7408 2.42099 1.3259
LeftFoot  1.35152 -0.100282 0.830344
LeftToes  -7.27628e-011 -1.6005e-012 -1.37987e-011
263
root  -1.07101 39.1283 32.7529 -116.391 -80.932 112.083
RightUpLeg  3.5832 3.84399 -12.0078
RightLeg  52.3348 -0.366081 -0.874852
RightFoot  10.5386 -1.26283 6.83555
RightToes  -4.65663e-010 0 -3.6325e-017
Spine  -1.43177 2.09983 -2.41189
Spine1  8.69186 3.46575 -5.63137
HEad  -0.017133 -6.37175 3.82414
LeftShoulder1  8.79617 -12.1778 -48.9653
LeftArm  -5.60484 27.1816 -24.8892
LeftForeArm  31.0731 -6.61695 -6.15495
LeftHand  -0.244104 0.0205437 5.32207
RightShoulder  6.59544 9.87067 42.974
RightArm  -8.36123 1.8142 37.9215
RightForeArm  23.8623 -2.3395 5.12974
RightHand  -0.64225 -0.0386999 -13.9735
LeftUpLeg  -15.1548 16.193 -7.71645
LeftLeg  19.9317 2.29821 1.07116
LeftFoot  -1.16868 -0.0785053 0.960812
LeftToes  -7.27628e-011 -1.6005e-012 -1.37987e-011
264
root  -2.42516 39.4844 32.9389 -122.583 -80.6273 117.697
RightUpLeg  -1.93264 4.83806 -11.2093
RightLeg  58.9827 -1.21399 -2.64444
RightFoot  10.2316 -0.797126 4.52498
RightToes  -4.65663e-010 0 -3.6325e-017
Spine  -0.89921 1.67097 -2.82599
Spine1  8.81196 2.93791 -5.24056
HEad  0.0585474 -6.19925 2.82489
LeftShoulder1  8.81457 -12.1902 -49.0293
LeftArm  -5.74036 23.025 -23.1492
LeftForeArm  30.4166 -7.36384 -6.22161
LeftHand  -0.244104 0.0205437 5.32207
RightShoulder  6.59095 9.95993 42.64
RightArm  -10.2294 -0.971329 38.2775
RightForeArm  24.8241 -3.1771 4.34168
RightHand  -0.489111 -1.17626 -13.4034
LeftUpLeg  -11.0344 15.8496 -6.56032
LeftLeg  18.206 3.56562 0.32615
LeftFoot  -2.19111 -0.0578168 0.883476
LeftToes  -7.27628e-011 -1.6005e-012 -1.37987e-011
